<?xml version="1.0" encoding="UTF-8" standalone="no"?>
<svg
   xmlns:dc="http://purl.org/dc/elements/1.1/"
   xmlns:cc="http://creativecommons.org/ns#"
   xmlns:rdf="http://www.w3.org/1999/02/22-rdf-syntax-ns#"
   xmlns:svg="http://www.w3.org/2000/svg"
   xmlns="http://www.w3.org/2000/svg"
   shape-rendering="crispEdges"
   enable-background="new"
   id="svg865"
   version="1.1"
   viewBox="0 0 576 512"
   role="img"
   class="svg-inline--fa fa-images fa-w-18"
   data-icon="images"
   data-prefix="fas"
   focusable="false"
   aria-hidden="true">
  <metadata
     id="metadata871">
    <rdf:RDF>
      <cc:Work
         rdf:about="">
        <dc:format>image/svg+xml</dc:format>
        <dc:type
           rdf:resource="http://purl.org/dc/dcmitype/StillImage" />
        <dc:title></dc:title>
      </cc:Work>
    </rdf:RDF>
  </metadata>
  <defs
     id="defs869" />
  <path
     id="path863"
     d="M 130.99609 72.458984 C 106.88024 72.458984 87.330078 92.009149 87.330078 116.125 L 87.330078 349.00391 C 87.330078 373.11976 106.88024 392.66992 130.99609 392.66992 L 480.31641 392.66992 C 504.43226 392.66992 523.98047 373.11976 523.98047 349.00391 L 523.98047 208.76172 A 113.26703 113.26703 0 0 1 463.10742 226.5293 A 113.26703 113.26703 0 0 1 459.54688 226.35156 L 465.75977 232.56445 L 465.75977 334.44922 L 145.55078 334.44922 L 145.55078 290.78516 L 196.05078 240.2832 C 200.31359 236.02041 207.22651 236.02041 211.49023 240.2832 L 247.43555 276.23047 L 361.19336 162.4707 A 113.26703 113.26703 0 0 1 349.83984 113.26367 A 113.26703 113.26703 0 0 1 357.57617 72.458984 L 130.99609 72.458984 z M 189.21484 116.125 C 213.33069 116.125 232.88086 135.6732 232.88086 159.78906 C 232.88086 183.90491 213.33069 203.45508 189.21484 203.45508 C 165.09898 203.45508 145.55078 183.90491 145.55078 159.78906 C 145.55078 135.6732 165.09898 116.125 189.21484 116.125 z M 43.666016 159.78906 C 19.550167 159.78906 0 179.33923 0 203.45508 L 0 436.33398 C -4.7369516e-15 460.44984 19.550167 480 43.666016 480 L 392.98633 480 C 417.1022 480 436.65039 460.44984 436.65039 436.33398 L 436.65039 421.7793 L 130.99609 421.7793 C 90.867896 421.7793 58.220703 389.13211 58.220703 349.00391 L 58.220703 159.78906 L 43.666016 159.78906 z "
     style="fill:#ffffff;stroke-width:0.90968871;fill-opacity:1" />
  <g
     style="opacity:1"
     id="layer1" />
  <g
     style="opacity:1;"
     id="layer2">
    <path
       style="fill:#ffffff;fill-opacity:1;stroke-width:0.25282821"
       d="M 511.65063,101.12733 H 475.24337 V 64.720088 c 0,-4.467477 -3.62303,-8.090504 -8.09052,-8.090504 h -8.0905 c -4.46745,0 -8.0905,3.623027 -8.0905,8.090504 V 101.12733 H 414.5646 c -4.46746,0 -8.09051,3.62304 -8.09051,8.09052 v 8.09051 c 0,4.46747 3.62305,8.09051 8.09051,8.09051 h 36.40725 v 36.40725 c 0,4.46747 3.62305,8.09049 8.0905,8.09049 h 8.0905 c 4.46749,0 8.09052,-3.62302 8.09052,-8.09049 v -36.40725 h 36.40726 c 4.46747,0 8.09049,-3.62304 8.09049,-8.09051 v -8.09051 c 0,-4.46748 -3.62302,-8.09052 -8.09049,-8.09052 z"
       id="path921" />
  </g>
</svg>
